<svg width="124" height="82" viewBox="0 0 124 82" fill="none" xmlns="http://www.w3.org/2000/svg">
<g clip-path="url(#clip0_55_7810)">
<path d="M41.8471 0.42215C48.8996 0.413352 55.8292 2.28577 61.9337 5.84968C55.8246 9.40866 50.7519 14.5281 47.2259 20.693C43.6998 26.8579 41.8447 33.851 41.8471 40.969H82.0305C82.0325 48.9913 79.6766 56.834 75.2609 63.5052C70.8451 70.1764 64.5678 75.3763 57.223 78.4472C49.8782 81.5182 41.7957 82.3222 33.998 80.7576C26.2002 79.1931 19.0375 75.3302 13.4157 69.6575C7.79391 63.9849 3.96563 56.7574 2.41508 48.8891C0.864525 41.0208 1.66135 32.8653 4.70478 25.454C7.7482 18.0427 12.9015 11.7087 19.5129 7.25297C26.1242 2.79728 33.8967 0.420113 41.8471 0.42215Z" fill="url(#paint0_linear_55_7810)"/>
<path d="M61.9336 5.84985C68.046 9.40593 73.1219 14.5244 76.65 20.6898C80.1781 26.8552 82.0339 33.8498 82.0304 40.9692H41.847C41.8447 33.8512 43.6998 26.8581 47.2259 20.6932C50.7519 14.5282 55.8246 9.40883 61.9336 5.84985Z" fill="url(#paint1_linear_55_7810)"/>
<path d="M61.9336 5.84967C55.8246 9.40865 50.7519 14.528 47.2259 20.693C43.6998 26.8579 41.8447 33.851 41.847 40.969H82.0304C82.0325 48.0895 80.1763 55.085 76.6484 61.2518C73.1205 67.4186 68.0454 72.5393 61.9336 76.0986C68.0439 79.6579 74.9749 81.5315 82.0302 81.5313C89.0855 81.531 96.0164 79.6569 102.126 76.0972C108.236 72.5375 113.31 67.4177 116.838 61.2523C120.365 55.0869 122.222 48.0932 122.222 40.9741C122.222 33.855 120.365 26.8613 116.838 20.696C113.31 14.5306 108.236 9.41079 102.126 5.85109C96.0164 2.2914 89.0855 0.417242 82.0302 0.416992C74.9749 0.416743 68.0439 2.29041 61.9336 5.84967Z" fill="url(#paint2_linear_55_7810)"/>
<path style="mix-blend-mode:multiply" opacity="0.3" d="M82.0304 40.969H41.847L61.9132 76.1089C68.0324 72.5537 73.1143 67.4331 76.6462 61.2636C80.1782 55.0941 82.0354 48.0939 82.0304 40.969Z" fill="url(#paint3_linear_55_7810)"/>
<path style="mix-blend-mode:multiply" opacity="0.3" d="M82.0305 41.031C82.0415 48.1602 80.1895 55.1664 76.6612 61.343C73.1329 67.5197 68.0529 72.6484 61.9337 76.2121C68.0359 79.7623 74.956 81.6311 81.9998 81.6311C89.0437 81.6311 95.9638 79.7623 102.066 76.2121L82.0305 41.031Z" fill="url(#paint4_linear_55_7810)"/>
<path d="M9.71666 44.5737C8.87953 44.6287 8.04152 44.4807 7.27267 44.142C6.50382 43.8034 5.82646 43.284 5.2972 42.6272C4.79046 41.8841 4.45112 41.038 4.303 40.1484C4.15489 39.2588 4.2016 38.3472 4.43985 37.4778C4.7508 35.5017 5.7105 33.6882 7.16501 32.3283C8.47921 31.0883 10.2139 30.4029 12.0131 30.4127C13.4879 30.3709 14.9312 30.8479 16.0958 31.7619L18.0861 29.1562C16.9123 27.8071 15.0955 27.0965 12.6562 27.0965C9.79586 27.0105 7.01562 28.0565 4.90935 30.0111C2.78019 31.9982 1.36564 34.6428 0.887948 37.5293C0.295965 40.6601 0.731447 43.1594 2.19439 45.0269C2.99439 45.99 4.0087 46.7486 5.15456 47.2408C6.30043 47.733 7.54539 47.9448 8.78786 47.8591C10.0323 47.8597 11.2678 47.6473 12.4418 47.2309C13.4937 46.8821 14.468 46.3293 15.3099 45.6036L14.524 42.9671C13.122 43.9859 11.4442 44.5466 9.71666 44.5737Z" fill="white"/>
<path d="M22.1586 45.1093C21.2969 45.1504 20.4527 44.8553 19.8008 44.2853C19.5159 44.0006 19.299 43.6542 19.1663 43.2724C19.0337 42.8905 18.9889 42.4833 19.0353 42.0814H27.9151C28.1718 41.5183 28.3504 40.9222 28.4458 40.31C28.6289 39.5779 28.6441 38.8134 28.4902 38.0745C28.3363 37.3357 28.0174 36.642 27.5578 36.0462C27.096 35.4867 26.5118 35.043 25.8512 34.7499C25.1906 34.4568 24.4716 34.3224 23.7508 34.3572C21.8652 34.3212 20.038 35.0181 18.6475 36.3037C17.2409 37.5572 16.2921 39.2509 15.9529 41.1133C15.7278 41.9414 15.6898 42.8099 15.8418 43.6548C15.9937 44.4997 16.3316 45.2994 16.8307 45.995C17.3778 46.6334 18.0648 47.1343 18.8373 47.4579C19.6098 47.7815 20.4465 47.9189 21.2808 47.8591C23.0811 47.8958 24.843 47.3309 26.2922 46.2524L25.8227 43.9352C24.7547 44.7068 23.4721 45.1177 22.1586 45.1093ZM23.1078 37.0761C23.4643 37.0484 23.8223 37.1047 24.1535 37.2405C24.4847 37.3763 24.7802 37.588 25.0164 37.8588C25.235 38.1482 25.3823 38.4859 25.4462 38.844C25.51 39.2021 25.4887 39.5704 25.3838 39.9186H19.3926C19.6167 39.099 20.1019 38.3765 20.7733 37.8628C21.4448 37.3491 22.2651 37.0726 23.1078 37.0761Z" fill="white"/>
<path d="M37.1214 40.8249V40.7631C37.8194 40.6591 38.4627 40.3218 38.9484 39.8053C39.4707 39.2924 39.8266 38.6316 39.9691 37.9103C40.3977 35.6514 38.7511 34.5254 35.0291 34.5323C34.4269 34.5323 33.5083 34.5323 32.2733 34.6043L30.1707 34.6764L27.7211 47.5398H28.1702H29.0072H30.0278C31.1812 47.6016 32.0691 47.6222 32.5999 47.6222C36.4988 47.6222 38.7238 46.3245 39.1934 43.7395C39.4791 42.2256 38.7851 41.2575 37.1214 40.8249ZM35.917 43.5644C35.8746 43.7952 35.7809 44.0133 35.643 44.2024C35.5052 44.3914 35.3267 44.5466 35.1209 44.6561C34.6033 44.9441 34.0172 45.0831 33.4266 45.0578C33.1306 45.0578 32.406 45.0578 31.3853 44.9445L31.9365 42.0814H33.8961C35.4271 42.0814 36.111 42.5757 35.917 43.5644ZM36.509 38.59C36.4713 38.8133 36.3872 39.0259 36.2623 39.214C36.1375 39.4022 35.9746 39.5616 35.7843 39.6817C35.3556 39.9586 34.854 40.0986 34.3452 40.0834H32.3039L32.8448 37.2512C33.4368 37.2512 34.09 37.1894 34.8249 37.1894C36.1212 37.1894 36.7438 37.6631 36.509 38.59Z" fill="white"/>
<path d="M46.2053 45.1093C45.3568 45.145 44.5272 44.85 43.8884 44.2853C43.5998 44.003 43.3796 43.6572 43.2451 43.2749C43.1106 42.8926 43.0652 42.4842 43.1127 42.0814H51.9924C52.2492 41.5183 52.4278 40.9222 52.5232 40.31C52.7034 39.5764 52.7153 38.811 52.5579 38.072C52.4005 37.3331 52.0779 36.6402 51.6148 36.0462C51.1529 35.4867 50.5687 35.043 49.9081 34.7499C49.2475 34.4568 48.5285 34.3224 47.8077 34.3572C45.9221 34.3212 44.095 35.0181 42.7044 36.3037C41.2979 37.5572 40.349 39.2509 40.0099 41.1133C39.7848 41.9414 39.7468 42.8099 39.8987 43.6548C40.0506 44.4997 40.3886 45.2994 40.8877 45.995C41.4352 46.6328 42.1224 47.1333 42.8947 47.4568C43.6671 47.7803 44.5035 47.9181 45.3377 47.8591C47.1381 47.8958 48.9 47.3309 50.3492 46.2524L49.8899 43.9352C48.8146 44.7077 47.5253 45.1186 46.2053 45.1093ZM47.1545 37.0761C47.5095 37.0344 47.8692 37.0834 48.2005 37.2185C48.5319 37.3536 48.8243 37.5706 49.0508 37.8494C49.2774 38.1283 49.4309 38.4602 49.4973 38.8145C49.5636 39.1689 49.5407 39.5343 49.4306 39.8774H43.3883C43.6221 39.0568 44.1182 38.3373 44.7994 37.8306C45.4805 37.324 46.3085 37.0587 47.1545 37.0761Z" fill="white"/>
<path d="M61.2396 34.3572C60.4711 34.361 59.71 34.5076 58.9941 34.7897C58.318 35.0408 57.6947 35.4181 57.157 35.902L57.3917 34.6764H54.2277L50.686 53.2145H53.8296L54.983 47.1793C55.8155 47.6605 56.7717 47.8793 57.7285 47.8075C59.6183 47.8351 61.446 47.1269 62.8318 45.8302C64.284 44.5363 65.256 42.7818 65.5876 40.8558C65.9936 39.2603 65.7665 37.568 64.9548 36.1389C64.5472 35.5367 63.9886 35.0544 63.3358 34.7414C62.6831 34.4284 61.9597 34.2958 61.2396 34.3572ZM62.2603 41C62.0851 42.0524 61.5681 43.0161 60.7905 43.7395C60.0553 44.4235 59.0856 44.7928 58.0858 44.7694C57.2105 44.8016 56.3493 44.5409 55.6362 44.0278L56.6568 38.8166C57.4554 37.9618 58.5554 37.4587 59.7188 37.4159C60.1381 37.3868 60.5578 37.4661 60.9382 37.6463C61.3187 37.8265 61.6472 38.1017 61.8928 38.4458C62.1223 38.8243 62.2732 39.2458 62.3364 39.6848C62.3996 40.1239 62.3737 40.5713 62.2603 41Z" fill="white"/>
<path d="M80.6117 30.8144L81.2343 27.5291H65.4651L64.8425 30.8144H71.0481L67.8637 47.5399H71.2217L74.4061 30.8144H80.6117Z" fill="white"/>
<path d="M88.5933 36.1904C88.1936 35.5819 87.6409 35.0915 86.9917 34.7694C86.3425 34.4473 85.6201 34.3051 84.8985 34.3572C84.13 34.3601 83.3686 34.5067 82.6531 34.7898C81.9721 35.0371 81.3448 35.4148 80.8057 35.902L81.0404 34.6765H77.8968L74.3551 53.2145H77.4987L78.6521 47.1794C79.4846 47.6605 80.4408 47.8793 81.3977 47.8076C83.2875 47.8352 85.1152 47.127 86.501 45.8302C87.9493 44.5332 88.9205 42.7801 89.2567 40.8558C89.6397 39.2725 89.402 37.6012 88.5933 36.1904ZM85.8681 41C85.701 42.0529 85.1868 43.0181 84.4086 43.7395C83.6734 44.4236 82.7036 44.7928 81.7039 44.7694C80.8286 44.8016 79.9674 44.5409 79.2543 44.0279L80.2749 38.8166C81.0735 37.9619 82.1735 37.4587 83.3369 37.416C83.7562 37.3869 84.1759 37.4661 84.5563 37.6464C84.9367 37.8266 85.2653 38.1018 85.5109 38.4459C85.7387 38.825 85.8878 39.2469 85.9492 39.686C86.0106 40.125 85.983 40.5721 85.8681 41Z" fill="white"/>
<path d="M99.3207 35.6754C98.6981 34.8 97.5346 34.3572 95.8199 34.3572C94.216 34.3674 92.6416 34.793 91.2473 35.593L91.5841 37.9927C92.6399 37.4572 93.7931 37.1453 94.9727 37.0761C95.2978 37.0281 95.6296 37.0789 95.9259 37.2219C96.2222 37.365 96.4695 37.5939 96.6364 37.8794C96.9006 38.6958 96.9006 39.5759 96.6364 40.3923C95.8919 39.8011 94.9592 39.5045 94.0133 39.5581C92.7723 39.5274 91.5559 39.9112 90.5533 40.6498C89.5749 41.4043 88.9238 42.5115 88.7365 43.7395C88.6025 44.2258 88.5779 44.7361 88.6644 45.2333C88.7509 45.7304 88.9464 46.2018 89.2366 46.6129C89.5623 46.9755 89.9667 47.2572 90.4183 47.4358C90.8698 47.6145 91.3561 47.6853 91.8393 47.6428C92.5789 47.6836 93.318 47.5557 94.0018 47.2686C94.6857 46.9815 95.2966 46.5427 95.7893 45.9847L95.5035 47.4677H98.2388L99.729 39.6405C100.025 37.9 99.9331 36.5508 99.3207 35.6754ZM96.0036 43.7704C95.684 44.1496 95.2844 44.4518 94.8341 44.655C94.3837 44.8581 93.8941 44.957 93.4009 44.9445C93.1871 44.9579 92.9729 44.9274 92.7711 44.8549C92.5693 44.7823 92.3843 44.6691 92.2272 44.5222C92.0882 44.3819 91.9885 44.207 91.9383 44.0153C91.8881 43.8235 91.8892 43.6217 91.9414 43.4305C91.9757 43.186 92.0619 42.9518 92.194 42.7439C92.3261 42.5359 92.501 42.3592 92.7069 42.2256C93.1543 41.9279 93.6818 41.7768 94.2174 41.793C94.9532 41.7242 95.6863 41.9498 96.2588 42.4212L96.0036 43.7704Z" fill="white"/>
<path d="M112.16 34.6764L111.966 35.7062C110.77 34.7015 109.231 34.2098 107.68 34.3365C105.852 34.3327 104.09 35.0283 102.75 36.283C101.314 37.5259 100.351 39.2332 100.025 41.1132C99.7972 41.9423 99.7599 42.8128 99.9155 43.6586C100.071 44.5044 100.416 45.3034 100.923 45.9949C101.476 46.6345 102.168 47.1358 102.946 47.4593C103.723 47.7828 104.565 47.9196 105.404 47.859C106.398 47.9042 107.391 47.7273 108.31 47.341C109.229 46.9547 110.052 46.3684 110.721 45.6241L109.701 43.2245C108.796 44.1925 107.548 44.7591 106.23 44.8002C105.794 44.8051 105.361 44.7158 104.961 44.5382C104.562 44.3606 104.205 44.0987 103.913 43.7703C103.626 43.3936 103.429 42.9551 103.336 42.4889C103.244 42.0227 103.26 41.5413 103.383 41.0823C103.552 40.0474 104.089 39.1102 104.893 38.4458C105.614 37.8041 106.535 37.4394 107.496 37.4159C108.03 37.39 108.563 37.4901 109.052 37.7082C109.541 37.9263 109.972 38.2564 110.313 38.6723L111.742 36.7979L111.528 37.9308H115.61L113.783 47.5088H116.927L118.754 37.9308H122.775L123.398 34.6455L112.16 34.6764Z" fill="white"/>
<path d="M21.5667 60.1249H20.4848V59.61C19.8344 59.5851 19.2058 59.3665 18.6783 58.9817C18.4759 58.8077 18.3133 58.5914 18.2019 58.3478C18.0904 58.1042 18.0327 57.8391 18.0327 57.5708C18.0327 57.3025 18.0904 57.0374 18.2019 56.7937C18.3133 56.5501 18.4759 56.3339 18.6783 56.1598C19.2049 55.7719 19.8334 55.5498 20.4848 55.5213V55.0063H21.5667V55.5213C22.2181 55.5498 22.8467 55.7719 23.3733 56.1598C23.5833 56.3271 23.751 56.5421 23.8627 56.7874C23.9745 57.0326 24.0271 57.3011 24.0163 57.5708C24.0247 57.8401 23.971 58.1078 23.8594 58.3526C23.7478 58.5975 23.5814 58.8128 23.3733 58.9817C22.8458 59.3665 22.2172 59.5851 21.5667 59.61V60.1249ZM19.5254 56.8499C19.4207 56.9368 19.3363 57.0461 19.2784 57.1698C19.2205 57.2936 19.1904 57.4288 19.1904 57.5656C19.1904 57.7025 19.2205 57.8377 19.2784 57.9614C19.3363 58.0852 19.4207 58.1944 19.5254 58.2814C19.8265 58.4921 20.1801 58.6134 20.5461 58.6316V56.4997C20.1661 56.5101 19.7973 56.6317 19.4846 56.8499H19.5254ZM22.5874 58.2814C22.6955 58.1967 22.783 58.0881 22.8432 57.9641C22.9033 57.84 22.9346 57.7037 22.9346 57.5656C22.9346 57.4275 22.9033 57.2912 22.8432 57.1672C22.783 57.0431 22.6955 56.9346 22.5874 56.8499C22.2844 56.643 21.9319 56.522 21.5667 56.4997V58.6316C21.9249 58.6056 22.2699 58.4849 22.567 58.2814H22.5874Z" fill="white"/>
<path d="M25.823 60.125H24.8024V54.9756H25.8843V58.2815L28.2318 54.9756H29.3341V60.125H28.3134V56.6955L25.823 60.125Z" fill="white"/>
<path d="M34.8861 60.125H33.794V57.9726H31.4057V60.125H30.3238V54.9756H31.4057V57.0354H33.794V54.9756H34.8861V60.125Z" fill="white"/>
<path d="M40.6122 60.125H39.3772L39.0608 59.2496H36.8868L36.5704 60.125H35.3354L37.3053 54.9756H38.6525L40.6122 60.125ZM38.7852 58.2918L37.9993 56.0982L37.2032 58.2918H38.7852Z" fill="white"/>
<path d="M45.6443 60.125H44.5522V57.9726H42.1639V60.125H41.082V54.9756H42.1639V57.0354H44.5522V54.9756H45.6443V60.125Z" fill="white"/>
<path d="M49.0937 60.2179C48.7396 60.2294 48.3866 60.1698 48.0555 60.0425C47.7243 59.9152 47.4215 59.7228 47.1647 59.4763C46.6739 58.9637 46.3996 58.2787 46.3996 57.5659C46.3996 56.8531 46.6739 56.1681 47.1647 55.6554C47.6869 55.1644 48.3803 54.9016 49.0937 54.9242C49.5284 54.9066 49.9591 55.0145 50.3352 55.2352C50.7112 55.456 51.017 55.7804 51.2167 56.1704L50.2879 56.6338C50.1728 56.4159 50.0041 56.2315 49.798 56.0983C49.5902 55.9562 49.3447 55.8808 49.0937 55.882C48.8801 55.8765 48.6678 55.9168 48.4707 56.0003C48.2736 56.0837 48.0964 56.2084 47.9506 56.3661C47.6607 56.6973 47.5007 57.124 47.5007 57.5659C47.5007 58.0078 47.6607 58.4345 47.9506 58.7657C48.0964 58.9234 48.2736 59.0481 48.4707 59.1315C48.6678 59.215 48.8801 59.2553 49.0937 59.2498C49.3431 59.2498 49.5873 59.1784 49.798 59.0438C50.0066 58.9092 50.1758 58.7207 50.2879 58.4979L51.2167 58.9511C51.017 59.3425 50.7117 59.6691 50.3362 59.8932C49.9606 60.1173 49.5299 60.2299 49.0937 60.2179Z" fill="white"/>
<path d="M54.2583 60.2178C53.5626 60.2178 52.8954 59.939 52.4035 59.4426C51.9116 58.9462 51.6352 58.273 51.6352 57.571C51.6352 56.869 51.9116 56.1958 52.4035 55.6994C52.8954 55.203 53.5626 54.9242 54.2583 54.9242C54.6095 54.9119 54.9595 54.9713 55.2875 55.0987C55.6154 55.2261 55.9146 55.4189 56.1669 55.6657C56.6448 56.1809 56.9107 56.8602 56.9107 57.5659C56.9107 58.2715 56.6448 58.9508 56.1669 59.466C55.9154 59.7146 55.6167 59.9094 55.2887 60.0386C54.9607 60.1678 54.6102 60.2287 54.2583 60.2178ZM53.1458 58.7657C53.2898 58.9187 53.4631 59.0405 53.6552 59.1238C53.8474 59.2071 54.0543 59.25 54.2634 59.25C54.4725 59.25 54.6794 59.2071 54.8716 59.1238C55.0637 59.0405 55.237 58.9187 55.381 58.7657C55.6573 58.428 55.8084 58.0038 55.8084 57.5659C55.8084 57.128 55.6573 56.7037 55.381 56.366C55.237 56.213 55.0637 56.0912 54.8716 56.0079C54.6794 55.9247 54.4725 55.8817 54.2634 55.8817C54.0543 55.8817 53.8474 55.9247 53.6552 56.0079C53.4631 56.0912 53.2898 56.213 53.1458 56.366C52.8749 56.7062 52.7273 57.1295 52.7273 57.5659C52.7273 58.0022 52.8749 58.4255 53.1458 58.7657Z" fill="white"/>
<path d="M60.4333 60.125H57.6775V54.9755H60.3414C60.5379 54.9621 60.735 54.989 60.921 55.0544C61.1069 55.1199 61.2778 55.2227 61.4233 55.3566C61.5461 55.4743 61.6432 55.6167 61.7082 55.7746C61.7733 55.9324 61.8048 56.1023 61.801 56.2732C61.8126 56.555 61.7259 56.832 61.556 57.0559C61.4037 57.2597 61.1818 57.3992 60.9334 57.4473C61.2099 57.493 61.4583 57.6442 61.6274 57.8695C61.833 58.1424 61.9346 58.4805 61.914 58.8226C61.8934 59.1647 61.7519 59.4879 61.5152 59.7336C61.3698 59.8684 61.1992 59.9724 61.0134 60.0396C60.8276 60.1068 60.6304 60.1359 60.4333 60.125ZM60.1067 57.0353C60.2672 57.0429 60.4245 56.9876 60.5455 56.8808C60.5967 56.8278 60.6367 56.7649 60.663 56.6959C60.6893 56.6268 60.7014 56.5531 60.6986 56.4792C60.7021 56.4043 60.6892 56.3295 60.661 56.2601C60.6328 56.1908 60.5899 56.1284 60.5353 56.0775C60.4778 56.024 60.4103 55.9828 60.3366 55.9562C60.2629 55.9297 60.1847 55.9184 60.1067 55.923H58.7594V57.0559L60.1067 57.0353ZM60.1067 59.1569C60.2801 59.1678 60.4513 59.1127 60.5864 59.0024C60.6436 58.9465 60.6885 58.8791 60.7184 58.8046C60.7483 58.7301 60.7624 58.6502 60.7599 58.5699C60.7618 58.4896 60.7474 58.4098 60.7176 58.3354C60.6877 58.261 60.6431 58.1936 60.5864 58.1373C60.5213 58.079 60.4454 58.0344 60.363 58.0061C60.2806 57.9778 60.1935 57.9664 60.1067 57.9725H58.7594V59.1569H60.1067Z" fill="white"/>
<path d="M62.7195 55.0065H63.8014V56.8191H65.0875C65.3162 56.8073 65.5448 56.8433 65.7591 56.9249C65.9733 57.0064 66.1686 57.1317 66.3327 57.2928C66.4829 57.4478 66.6009 57.6315 66.6797 57.8331C66.7586 58.0347 66.7968 58.2502 66.792 58.4669C66.8026 58.906 66.6412 59.3315 66.3429 59.6513C66.1762 59.8118 65.979 59.9365 65.7633 60.0179C65.5475 60.0993 65.3176 60.1358 65.0875 60.125H62.7195V55.0065ZM64.9446 57.7769H63.8014V59.1569H64.9446C65.1413 59.1638 65.3337 59.0979 65.4855 58.9716C65.5538 58.9074 65.6074 58.8291 65.6427 58.7419C65.6779 58.6548 65.6939 58.5609 65.6897 58.4669C65.6925 58.3746 65.6757 58.2828 65.6405 58.1975C65.6053 58.1123 65.5525 58.0356 65.4855 57.9726C65.3372 57.8389 65.1432 57.7688 64.9446 57.7769ZM68.3026 60.125H67.2207V54.9756H68.3026V60.125Z" fill="white"/>
<path d="M72.8956 60.125H69.313V54.9756H72.8956V55.9334H70.4256V56.9633H72.8854V57.9211H70.4256V59.0746H72.9364L72.8956 60.125Z" fill="white"/>
<path d="M76.9169 60.2178C76.6945 60.2162 76.4739 60.1779 76.2637 60.1045C76.0831 60.0574 75.9155 59.9694 75.7738 59.847L76.182 58.9716C76.3599 59.1401 76.5916 59.2387 76.8353 59.2497C76.9879 59.2588 77.1391 59.2152 77.2639 59.1261C77.3936 59.008 77.4978 58.8643 77.5701 58.7038L75.7023 54.9962H76.9271L78.1825 57.6739L79.4482 54.9653H80.6321L78.5398 59.0849C78.3936 59.4016 78.1728 59.6774 77.8968 59.8882C77.6118 60.0977 77.2694 60.2128 76.9169 60.2178Z" fill="white"/>
<path d="M83.5925 60.2177C83.2368 60.2289 82.8824 60.1692 82.5496 60.042C82.2168 59.9147 81.9122 59.7225 81.6532 59.4762C81.1502 58.9616 80.8682 58.2679 80.8682 57.5452C80.8682 56.8224 81.1502 56.1287 81.6532 55.6141C82.1777 55.1269 82.8695 54.8647 83.5822 54.8829C84.0264 54.863 84.4667 54.9741 84.8492 55.2028C85.2317 55.4314 85.5398 55.7676 85.7358 56.1703L84.807 56.6337C84.6919 56.4158 84.5232 56.2314 84.3171 56.0982C84.1093 55.9561 83.8639 55.8807 83.6129 55.8819C83.4008 55.8765 83.19 55.917 82.9946 56.0004C82.7992 56.0839 82.6237 56.2085 82.4799 56.3659C82.19 56.6972 82.0301 57.1239 82.0301 57.5658C82.0301 58.0077 82.19 58.4344 82.4799 58.7656C82.6237 58.923 82.7992 59.0476 82.9946 59.1311C83.19 59.2146 83.4008 59.255 83.6129 59.2496C83.8622 59.2496 84.1064 59.1782 84.3171 59.0437C84.5258 58.9091 84.6949 58.7206 84.807 58.4978L85.7358 58.951C85.5356 59.3465 85.2273 59.6759 84.8476 59.9003C84.4678 60.1248 84.0323 60.2349 83.5925 60.2177Z" fill="white"/>
<path d="M86.0621 60.2179V59.2498C86.1877 59.2534 86.3121 59.2239 86.423 59.1643C86.534 59.1047 86.6277 59.0171 86.6949 58.9099C86.884 58.5239 86.995 58.1038 87.0215 57.674L87.3175 55.0581H90.9204V60.2076H89.8181V56.088H88.2973L88.0932 57.674C88.052 58.1117 87.963 58.5435 87.8278 58.9614C87.7357 59.2511 87.5785 59.5154 87.3685 59.7338C87.2025 59.8947 87.0041 60.0177 86.7867 60.0943C86.5524 60.1708 86.3083 60.2125 86.0621 60.2179Z" fill="white"/>
<path d="M92.6045 60.2178C92.3821 60.2162 92.1614 60.1779 91.9513 60.1045C91.7685 60.0551 91.5981 59.9673 91.4511 59.847L91.8696 58.9716C92.0474 59.1401 92.2792 59.2387 92.5228 59.2497C92.6755 59.2588 92.8267 59.2152 92.9515 59.1261C93.08 59.011 93.1842 58.8709 93.2577 58.7141L91.3899 55.0065H92.6147L93.9007 57.6739L95.1561 54.9653H96.3809L94.2886 59.0849C94.1489 59.4057 93.927 59.683 93.6456 59.8882C93.344 60.1109 92.978 60.2268 92.6045 60.2178Z" fill="white"/>
<path d="M97.9022 60.125H96.8203V54.9756H100.413V55.9334H97.9022V60.125Z" fill="white"/>
<path d="M102.209 60.125H101.188V54.9756H102.27V58.2815L104.618 54.9756H105.72V60.125H104.7V56.6955L102.209 60.125Z" fill="white"/>
</g>
<defs>
<linearGradient id="paint0_linear_55_7810" x1="40.4386" y1="81.4952" x2="43.2963" y2="0.444544" gradientUnits="userSpaceOnUse">
<stop stop-color="#84FF5B"/>
<stop offset="1" stop-color="#066BFF"/>
</linearGradient>
<linearGradient id="paint1_linear_55_7810" x1="102.393" y1="71.4437" x2="38.1649" y2="10.4442" gradientUnits="userSpaceOnUse">
<stop stop-color="#FFCF8B"/>
<stop offset="1" stop-color="#FF8B79"/>
</linearGradient>
<linearGradient id="paint2_linear_55_7810" x1="22.3422" y1="-35.0885" x2="131.365" y2="97.5992" gradientUnits="userSpaceOnUse">
<stop stop-color="#00BAEC"/>
<stop offset="0.06" stop-color="#08B1E5"/>
<stop offset="0.35" stop-color="#2A87C4"/>
<stop offset="0.62" stop-color="#4368AD"/>
<stop offset="0.84" stop-color="#53569E"/>
<stop offset="1" stop-color="#584F99"/>
</linearGradient>
<linearGradient id="paint3_linear_55_7810" x1="61.9336" y1="108.581" x2="61.9336" y2="42.071" gradientUnits="userSpaceOnUse">
<stop offset="0.49" stop-color="white"/>
<stop offset="0.54" stop-color="#F3F3F3"/>
<stop offset="0.62" stop-color="#D1D1D1"/>
<stop offset="0.73" stop-color="#9C9C9C"/>
<stop offset="0.87" stop-color="#515151"/>
<stop offset="1"/>
</linearGradient>
<linearGradient id="paint4_linear_55_7810" x1="94.2988" y1="95.296" x2="70.205" y2="56.3844" gradientUnits="userSpaceOnUse">
<stop offset="0.49" stop-color="white"/>
<stop offset="0.54" stop-color="#F3F3F3"/>
<stop offset="0.62" stop-color="#D1D1D1"/>
<stop offset="0.73" stop-color="#9C9C9C"/>
<stop offset="0.87" stop-color="#515151"/>
<stop offset="1"/>
</linearGradient>
<clipPath id="clip0_55_7810">
<rect width="124" height="82" fill="white"/>
</clipPath>
</defs>
</svg>
