<svg width="19" height="20" viewBox="0 0 19 20" fill="none" xmlns="http://www.w3.org/2000/svg">
<path fill-rule="evenodd" clip-rule="evenodd" d="M9.5 19.5C14.7467 19.5 19 15.2467 19 10C19 4.75329 14.7467 0.5 9.5 0.5C4.25329 0.5 0 4.75329 0 10C0 15.2467 4.25329 19.5 9.5 19.5ZM11.1252 10.9286L8.9684 13.0855C8.5974 13.4565 8.5974 14.058 8.9684 14.429C9.33939 14.8 9.9409 14.8 10.3119 14.429L14.0905 10.6504C14.4615 10.2794 14.4615 9.67785 14.0905 9.30685L10.3119 5.52825C9.9409 5.15725 9.33939 5.15725 8.9684 5.52825C8.5974 5.89925 8.5974 6.50075 8.9684 6.87175L11.1252 9.0286H4.5125C3.98783 9.0286 3.5625 9.45393 3.5625 9.9786C3.5625 10.5033 3.98783 10.9286 4.5125 10.9286H11.1252Z" fill="white"/>
</svg>
