<svg width="20" height="20" viewBox="0 0 20 20" fill="none" xmlns="http://www.w3.org/2000/svg">
<path d="M16.0743 20C15.2422 20 14.2372 19.7915 13.1319 19.3744C10.7089 18.4609 8.07256 16.6553 5.7087 14.2915C3.34416 11.9269 1.53863 9.28995 0.624436 6.86689C-0.206348 4.6638 -0.208366 2.85558 0.619727 2.02816C0.738795 1.90909 0.859881 1.78128 0.985003 1.64943C1.74044 0.854974 2.5941 -0.0390437 3.72558 0.00131823C4.50524 0.0336078 5.26068 0.517951 6.03428 1.48058C8.32012 4.32341 7.28954 5.3365 6.09685 6.51103L5.88629 6.71957C5.69121 6.91465 5.32257 7.81808 8.75199 11.2475C9.87136 12.3669 10.8259 13.1862 11.5888 13.682C12.0691 13.9941 12.9281 14.4664 13.2806 14.1139L13.4925 13.9C14.6657 12.71 15.6788 11.6827 18.5196 13.9666C19.4822 14.7402 19.9659 15.4949 19.9982 16.2759C20.0446 17.4067 19.1438 18.2624 18.3487 19.0172C18.2175 19.1423 18.0897 19.2634 17.9707 19.3818C17.5596 19.7935 16.9024 20 16.0743 20Z" fill="#4B60A6"/>
</svg>
