<?xml version="1.0" encoding="utf-8"?>
<!-- Generator: Adobe Illustrator 23.0.1, SVG Export Plug-In . SVG Version: 6.00 Build 0)  -->
<svg version="1.1" id="Слой_1" xmlns="http://www.w3.org/2000/svg" xmlns:xlink="http://www.w3.org/1999/xlink" x="0px" y="0px"
	 viewBox="0 0 13 17" style="enable-background:new 0 0 13 17;" xml:space="preserve">
<style type="text/css">
	.st0{fill:#4B60A6;}
</style>
<path class="st0" d="M10.4,3H13c0,0-0.1-0.1-0.1-0.1l-2.8-2.8C10.1,0.1,10,0,10,0v2.6C10,2.8,10.2,3,10.4,3z"/>
<path class="st0" d="M10.1,5c-0.6,0-2-0.5-2-2.2V0H1.1C0.5,0,0,0.5,0,1.1v14.9C0,16.5,0.5,17,1.1,17h10.8c0.6,0,1.1-0.5,1.1-1.1V5
	L10.1,5z M6.5,14L3,10.4l0.8-0.8l2.1,2.2V5h1.1v6.8l2.1-2.2l0.8,0.8L6.5,14z"/>
</svg>
