<svg width="21" height="16" viewBox="0 0 21 16" fill="none" xmlns="http://www.w3.org/2000/svg">
<path d="M20.5897 5.29167C19.6053 6.08333 17.4725 7.66667 14.2733 10L13.8632 10.3333C13.2069 10.8333 12.7147 11.2083 12.3046 11.4167C11.6483 11.8333 11.0331 12 10.4999 12C9.92566 12 9.35144 11.8333 8.69519 11.4583C8.28503 11.25 7.79285 10.875 7.1366 10.375L6.72644 10C3.40417 7.58333 1.31238 6 0.410034 5.29167C0.328003 5.25 0.204956 5.25 0.122925 5.29167C0.0408936 5.33333 -0.00012207 5.41667 -0.00012207 5.5V14C-0.00012207 14.5833 0.16394 15.0417 0.574097 15.4167C0.943237 15.8333 1.39441 16 1.96863 16H19.0311C19.5643 16 20.0155 15.8333 20.4257 15.4167C20.7948 15.0417 20.9999 14.5833 20.9999 14V5.5C20.9999 5.41667 20.9178 5.33333 20.8358 5.25C20.7538 5.20833 20.6718 5.20833 20.5897 5.29167ZM10.4999 10.6667C10.1307 10.6667 9.67957 10.5 9.18738 10.1667C8.85925 10 8.4491 9.70833 7.91589 9.25L7.50574 8.95833C4.14246 6.45833 1.84558 4.75 0.656128 3.79167L0.369019 3.58333C0.122925 3.41667 -0.00012207 3.125 -0.00012207 2.79167V2C-0.00012207 1.45833 0.16394 1 0.574097 0.583333C0.943237 0.208333 1.39441 0 1.96863 0H19.0311C19.5643 0 20.0155 0.208333 20.4257 0.583333C20.7948 1 20.9999 1.45833 20.9999 2V2.79167C20.9999 3.125 20.8768 3.41667 20.6307 3.58333L20.4257 3.75C19.2362 4.70833 16.9393 6.45833 13.494 8.95833L13.0839 9.25C12.5096 9.70833 12.0995 10 11.8124 10.1667C11.2792 10.5 10.828 10.6667 10.4999 10.6667Z" fill="#4B60A6"/>
</svg>
