<svg width="21" height="16" viewBox="0 0 21 16" fill="none" xmlns="http://www.w3.org/2000/svg">
<path d="M20.5898 5.29167C19.6055 6.08333 17.4727 7.66667 14.2734 10L13.8633 10.3333C13.207 10.8333 12.7148 11.2083 12.3047 11.4167C11.6484 11.8333 11.0332 12 10.5 12C9.92578 12 9.35156 11.8333 8.69531 11.4583C8.28516 11.25 7.79297 10.875 7.13672 10.375L6.72656 10C3.4043 7.58333 1.3125 6 0.410156 5.29167C0.328125 5.25 0.205078 5.25 0.123047 5.29167C0.0410156 5.33333 0 5.41667 0 5.5V14C0 14.5833 0.164062 15.0417 0.574219 15.4167C0.943359 15.8333 1.39453 16 1.96875 16H19.0312C19.5645 16 20.0156 15.8333 20.4258 15.4167C20.7949 15.0417 21 14.5833 21 14V5.5C21 5.41667 20.918 5.33333 20.8359 5.25C20.7539 5.20833 20.6719 5.20833 20.5898 5.29167ZM10.5 10.6667C10.1309 10.6667 9.67969 10.5 9.1875 10.1667C8.85938 10 8.44922 9.70833 7.91602 9.25L7.50586 8.95833C4.14258 6.45833 1.8457 4.75 0.65625 3.79167L0.369141 3.58333C0.123047 3.41667 0 3.125 0 2.79167V2C0 1.45833 0.164062 1 0.574219 0.583333C0.943359 0.208333 1.39453 0 1.96875 0H19.0312C19.5645 0 20.0156 0.208333 20.4258 0.583333C20.7949 1 21 1.45833 21 2V2.79167C21 3.125 20.877 3.41667 20.6309 3.58333L20.4258 3.75C19.2363 4.70833 16.9395 6.45833 13.4941 8.95833L13.084 9.25C12.5098 9.70833 12.0996 10 11.8125 10.1667C11.2793 10.5 10.8281 10.6667 10.5 10.6667Z" fill="#4B60A6"/>
<path d="M20.5898 5.29167C19.6055 6.08333 17.4727 7.66667 14.2734 10L13.8633 10.3333C13.207 10.8333 12.7148 11.2083 12.3047 11.4167C11.6484 11.8333 11.0332 12 10.5 12C9.92578 12 9.35156 11.8333 8.69531 11.4583C8.28516 11.25 7.79297 10.875 7.13672 10.375L6.72656 10C3.4043 7.58333 1.3125 6 0.410156 5.29167C0.328125 5.25 0.205078 5.25 0.123047 5.29167C0.0410156 5.33333 0 5.41667 0 5.5V14C0 14.5833 0.164062 15.0417 0.574219 15.4167C0.943359 15.8333 1.39453 16 1.96875 16H19.0312C19.5645 16 20.0156 15.8333 20.4258 15.4167C20.7949 15.0417 21 14.5833 21 14V5.5C21 5.41667 20.918 5.33333 20.8359 5.25C20.7539 5.20833 20.6719 5.20833 20.5898 5.29167ZM10.5 10.6667C10.1309 10.6667 9.67969 10.5 9.1875 10.1667C8.85938 10 8.44922 9.70833 7.91602 9.25L7.50586 8.95833C4.14258 6.45833 1.8457 4.75 0.65625 3.79167L0.369141 3.58333C0.123047 3.41667 0 3.125 0 2.79167V2C0 1.45833 0.164062 1 0.574219 0.583333C0.943359 0.208333 1.39453 0 1.96875 0H19.0312C19.5645 0 20.0156 0.208333 20.4258 0.583333C20.7949 1 21 1.45833 21 2V2.79167C21 3.125 20.877 3.41667 20.6309 3.58333L20.4258 3.75C19.2363 4.70833 16.9395 6.45833 13.4941 8.95833L13.084 9.25C12.5098 9.70833 12.0996 10 11.8125 10.1667C11.2793 10.5 10.8281 10.6667 10.5 10.6667Z" fill="url(#paint0_linear_40_7154)"/>
<defs>
<linearGradient id="paint0_linear_40_7154" x1="10.5" y1="0" x2="10.5" y2="16" gradientUnits="userSpaceOnUse">
<stop stop-color="#6FCF97"/>
<stop offset="1" stop-color="#66D2EA"/>
</linearGradient>
</defs>
</svg>
